<svg xmlns="http://www.w3.org/2000/svg" width="500" height="500" viewBox="0 0 500 500">
  <path fill="#ff0" d="M426.802 73.198C379.518 26.028 316.777 0 249.943 0 183.11 0 120.482 26.029 73.198 73.198 26.028 120.482 0 183.224 0 249.944s26.029 129.575 73.198 176.745c47.17 47.17 110.025 73.198 176.745 73.198s129.575-26.028 176.745-73.198c47.17-47.17 73.198-110.025 73.198-176.745s-26.028-129.575-73.198-176.745h.114Zm-10.457 343.147c-44.442 44.442-103.547 68.879-166.402 68.879-62.855 0-121.959-24.437-166.401-68.879-44.442-44.442-68.88-103.547-68.88-166.402 0-62.855 24.438-121.959 68.88-166.401 44.555-44.328 103.546-68.88 166.401-68.88 62.855 0 121.96 24.438 166.402 68.88 44.442 44.442 68.879 103.546 68.879 166.401 0 62.855-24.437 121.96-68.879 166.402Z"/>
  <path fill="#0ff" d="M358.377 262.446a523.8 523.8 0 0 0 19.891-31.939l-4.319-2.728c-7.843 13.412-14.436 23.983-19.778 31.939-13.866 21.141-27.051 32.053-39.44 32.394l-2.046-9.661a41639.768 41639.768 0 0 0 63.764-160.037h-22.505c-31.143 73.653-55.808 133.326-73.88 178.904-4.092 10.344-8.639 22.96-13.526 37.623-10.684-3.865-22.505-8.639-35.349-14.435-13.64-6.138-25.688-11.139-36.031-15.004 6.82-8.752 14.094-20.8 21.709-36.258 16.595-4.433 29.553-13.526 38.873-27.279 9.32-13.753 13.98-29.211 13.98-46.261 0-17.049-2.841-22.164-8.524-31.711 5.455-15.799 8.07-29.893 8.07-42.169 0-12.275-5.115-29.097-15.231-39.782-10.23-10.57-23.755-15.912-40.464-15.912-18.299 0-34.667 6.933-48.988 20.459-14.322 13.526-24.892 28.756-31.712 45.692-7.388 18.413-11.139 36.599-11.139 54.558 0 17.958 2.16 25.119 6.479 37.281 4.319 12.048 11.593 22.391 21.937 30.916 10.343 8.525 23.869 13.753 40.691 15.572-5.229 10.911-10.23 20.232-15.117 28.188-8.752-2.5-15.799-3.864-20.914-3.864-10.23 0-17.618 2.159-22.392 6.478-4.773 4.32-7.16 9.434-7.16 15.231 0 5.797 1.705 8.979 5.001 12.73 3.296 3.637 8.411 5.57 15.344 5.57 15.913 0 30.803-7.843 44.783-23.528 10.002 4.66 21.482 10.797 34.553 18.527 13.185 7.842 25.574 14.094 37.282 18.867 0 .228-.114.455-.228.682-6.819 21.142-10.116 37.964-10.116 50.125 0 17.277 6.365 26.029 18.982 26.029 12.616 0 25.46-8.411 34.894-25.347 6.593-11.82 10.798-25.46 12.844-40.804 10.002-1.137 18.072-5.115 24.324-11.821 7.615-8.07 11.366-15.799 11.366-23.187 0-7.388-.682-3.637-2.16-5.229-1.477-1.477-3.182-2.273-5.114-2.273-1.933 0-3.979.796-5.456 2.273-1.478 1.592-2.273 3.296-2.273 5.229 0 1.932.682 4.092 2.273 5.569 1.477 1.478 3.523 2.16 6.138 2.16-5.684 8.638-15.004 13.298-27.961 13.753 0-2.273.113-4.66.113-6.934 0-15.571-1.364-30.802-3.978-45.692 12.73-.909 27.052-12.616 42.624-34.894h-.114Zm-215.845 71.266c-3.523 0-6.365-1.136-8.524-3.41-2.274-2.273-3.41-5.683-3.41-10.002 0-4.319 1.818-8.411 5.569-11.48 3.751-3.069 9.775-4.546 18.073-4.546 8.297 0 10.911 1.25 18.299 3.864-11.252 17.163-21.255 25.688-30.12 25.688l.113-.114Zm116.618-158.9c3.523 7.843 5.342 16.254 5.342 25.233 0 15.004-3.865 28.643-11.48 41.033-7.615 12.389-18.641 21.027-32.848 25.914 15.117-29.893 28.074-60.581 38.986-92.18ZM154.126 255.74c-18.072-14.549-27.165-36.145-27.165-64.674 0-28.529 3.41-34.212 10.457-51.83 6.478-16.14 16.367-30.802 30.006-43.76 13.526-12.957 28.984-19.55 46.375-19.55 17.39 0 33.644 15.458 33.644 46.375 0 30.916-1.819 20.913-5.343 31.029-3.068-.568-6.024-.909-8.979-.909-13.98 0-26.142 5.115-36.372 15.458-5.569 5.57-8.411 10.23-8.411 13.753 0 3.524.682 3.865 2.16 5.342 1.477 1.478 3.182 2.16 5.228 2.16s3.751-.682 5.229-2.16c1.477-1.477 2.159-3.182 2.159-5.342 0-2.159-1.591-4.887-4.774-6.365 8.071-11.821 19.664-17.731 34.667-17.731 15.004 0 4.774.227 7.161.795-4.433 14.208-10.911 31.371-19.095 51.717-8.297 20.232-17.39 40.236-27.506 59.9-16.368-1.364-29.552-6.024-39.441-14.094v-.114Zm146.283 54.899 6.593-15.572c1.023.796 2.159 1.478 3.523 1.819 2.614 12.616 3.978 27.961 3.978 45.919 0 17.959 0 4.888-.113 7.275-7.616-.341-16.595-1.819-26.825-4.547 5.456-16.026 9.775-27.62 12.844-34.781v-.113Zm1.705 87.52c-8.184 14.662-15.799 21.936-22.846 21.936-7.047 0-6.138-3.75-6.138-11.138 0-12.958 3.183-29.325 9.548-49.102 10.229 2.727 19.891 4.091 28.87 4.091h1.478c-1.819 13.072-5.456 24.438-10.912 34.213Z"/>
</svg> 