<svg width="270" height="475" viewBox="0 0 270 475" fill="none" xmlns="http://www.w3.org/2000/svg">
<path d="M247.39 155.44C248.211 155.799 248.95 156.324 249.559 156.981C250.167 157.645 250.633 158.427 250.926 159.279C251.219 160.13 251.334 161.032 251.264 161.93L228.046 450.393C227.53 456.87 224.594 462.914 219.822 467.323C215.058 471.724 208.81 474.167 202.325 474.166H91.5549C85.0683 474.171 78.8189 471.727 74.0569 467.323C69.2619 462.901 66.3599 456.899 65.8339 450.393L56.2019 330.767C55.9279 327.292 52.9839 324.576 49.5139 324.576C46.9479 324.576 45.3079 325.944 44.5509 326.745C43.8149 327.566 42.5949 329.314 42.8049 331.862L47.2429 386.842C47.4492 389.517 47.104 392.205 46.2286 394.74C45.3532 397.276 43.9663 399.605 42.1539 401.582C40.3375 403.552 38.1327 405.125 35.6785 406.202C33.2243 407.278 30.5737 407.835 27.8939 407.836C23.0113 407.842 18.3076 405.999 14.7289 402.677C11.1415 399.366 8.9335 394.825 8.54486 389.958L6.48486 364.184L4.73886 342.474V342.306L3.45586 326.429L3.07786 321.754L0.132858 284.841L0.111858 284.588L0.0908583 284.209C-0.623142 273.259 2.88886 262.646 9.99686 254.287L28.5249 232.514L49.7009 207.603C50.3129 206.884 51.0737 206.307 51.9308 205.91C52.7878 205.514 53.7207 205.309 54.6649 205.308C56.208 205.308 57.7001 205.861 58.8709 206.866C61.6049 209.182 61.9409 213.309 59.6069 216.047L40.7839 238.178C36.0226 243.452 25.1804 255.6 19.9019 262C13.3037 270 13 278.923 13 283.5C13 288.077 15.5 292.5 21.8359 293C28.1717 293.5 31.5 287 31 282L28.4062 252.176L40.1797 238.898L43.5809 280.924C44.5489 292.927 35.5689 303.498 23.5809 304.445C22.9709 304.508 22.3829 304.529 21.7929 304.529C20.3209 304.529 18.8489 304.382 17.4189 304.087L14.6849 303.519L14.8949 306.319L16.0529 320.617V320.701L16.4309 325.355L17.7139 341.358L19.4599 363.258L21.5209 388.906C21.7729 392.212 24.5909 394.802 27.8929 394.802C28.7761 394.809 29.6508 394.629 30.4593 394.273C31.2677 393.917 31.9915 393.394 32.5829 392.738C33.1861 392.093 33.6475 391.329 33.9373 390.495C34.2272 389.661 34.3391 388.775 34.2659 387.895L29.8279 332.893C29.3859 327.419 31.2789 321.965 35.0019 317.922C36.8497 315.915 39.0928 314.312 41.5901 313.214C44.0874 312.116 46.7848 311.546 49.5129 311.541C54.4759 311.541 59.2289 313.415 62.8889 316.785C66.5395 320.157 68.7848 324.781 69.1769 329.735L78.7879 449.361C79.3339 455.952 84.9289 461.132 91.5539 461.132H202.324C208.927 461.132 214.543 455.952 215.068 449.361L237.55 170.184L237.719 167.91H56.1369L56.3269 170.184L57.2099 181.218C57.2833 182.07 57.1853 182.929 56.9217 183.742C56.658 184.556 56.2341 185.309 55.6749 185.956C55.129 186.612 54.4567 187.151 53.6981 187.542C52.9394 187.933 52.1099 188.167 51.2589 188.23C51.0689 188.251 50.9009 188.251 50.733 188.251H50.7329C47.3679 188.251 44.5079 185.619 44.2339 182.271L42.5939 161.93C42.5234 161.033 42.6382 160.13 42.9312 159.279C43.2242 158.427 43.689 157.645 44.2969 156.981C44.9115 156.325 45.6541 155.801 46.4787 155.443C47.3034 155.085 48.1927 154.899 49.0919 154.897H244.785C245.681 154.897 246.568 155.082 247.39 155.44Z" fill="#FF0000"/>
<path d="M206.908 196.4C206.297 195.737 205.556 195.208 204.731 194.846C203.906 194.483 203.014 194.296 202.113 194.295H91.743C90.8466 194.295 89.9598 194.48 89.1383 194.838C88.3168 195.197 87.5782 195.722 86.969 196.379C86.3584 197.041 85.8918 197.823 85.5987 198.675C85.3055 199.527 85.1923 200.43 85.266 201.328L90.376 264.836C90.649 268.185 93.489 270.817 96.854 270.817H197.003C200.368 270.817 203.228 268.185 203.501 264.836L208.612 201.328C208.682 200.434 208.567 199.534 208.274 198.686C207.981 197.838 207.516 197.06 206.908 196.4ZM194.879 209.603L191.156 255.866L191.009 257.803H102.868L102.7 255.866L98.978 209.603L98.788 207.329H195.068L194.879 209.603ZM208.086 330.43L198.896 444.602H94.982L85.56 327.692C91.028 317.922 98.305 313.373 108.4 313.373C119.798 313.373 133.489 319.312 146.739 325.039C160.746 331.104 175.215 337.357 188.107 337.357C195.951 337.357 202.534 335.083 208.086 330.43ZM151.618 70.7731C151.018 71.3786 150.303 71.8595 149.517 72.1883C148.73 72.5171 147.886 72.6873 147.033 72.6891C146.177 72.6894 145.329 72.5203 144.539 72.1914C143.749 71.8626 143.031 71.3805 142.428 70.7731C141.817 70.1712 141.333 69.453 141.004 68.6609C140.675 67.8687 140.509 67.0187 140.514 66.1611C140.514 64.4351 141.187 62.7921 142.428 61.5501C146.676 57.2961 148.485 53.7801 147.938 50.7691C147.391 47.7361 144.699 44.4091 141.839 40.8721C138.179 36.3651 134.036 31.2491 132.922 24.7421C131.597 17.0981 134.709 9.62208 142.428 1.89508C143.032 1.29052 143.75 0.811764 144.541 0.486494C145.331 0.161224 146.178 -0.00410229 147.033 7.73121e-05C148.758 7.73121e-05 150.398 0.674077 151.618 1.89508C152.226 2.49925 152.708 3.21777 153.036 4.00917C153.365 4.80058 153.533 5.6492 153.532 6.50608C153.532 8.25408 152.859 9.87608 151.618 11.1181C147.117 15.6241 145.204 19.3721 145.751 22.5521C146.276 25.6891 149.158 29.2271 151.934 32.6601C155.53 37.1031 159.61 42.1351 160.746 48.4731C162.091 55.9911 159.105 63.2771 151.618 70.7731Z" fill="#FF0000"/>
<path d="M263.292 123.058H246.32L245.753 121.858L233.407 95.8101L233.008 94.9681C232.019 92.8411 229.937 91.4301 227.582 91.2621H227.414L227.329 91.2411H202.471L203.186 88.5871C203.943 85.7661 204.069 82.9871 203.543 80.0801C202.408 73.7211 198.328 68.7101 194.732 64.2661C191.955 60.8341 189.074 57.2761 188.527 54.1381C187.981 50.9581 189.915 47.2311 194.416 42.7041C195.021 42.1023 195.501 41.3872 195.83 40.5996C196.158 39.812 196.328 38.9674 196.33 38.1141C196.331 37.2571 196.162 36.4085 195.833 35.617C195.505 34.8255 195.023 34.1067 194.416 33.5021C193.815 32.8907 193.098 32.4061 192.307 32.077C191.516 31.7478 190.667 31.5809 189.81 31.5861C188.956 31.5832 188.111 31.7512 187.324 32.0803C186.536 32.4093 185.823 32.8928 185.225 33.5021C177.507 41.2091 174.395 48.6841 175.72 56.3491C176.834 62.8561 180.977 67.9721 184.637 72.4791C187.497 75.9951 190.189 79.3431 190.736 82.3761C191.156 84.7341 190.147 87.3871 187.644 90.4611L187.013 91.2411H118.747L119.462 88.5871C120.219 85.7661 120.324 82.9871 119.798 80.0801C118.663 73.7211 114.604 68.7101 111.007 64.2661C108.21 60.8341 105.329 57.2761 104.803 54.1381C104.256 50.9581 106.17 47.2311 110.671 42.7041C111.28 42.1052 111.763 41.3907 112.092 40.6024C112.42 39.8141 112.588 38.9681 112.585 38.1141C112.59 37.2564 112.424 36.4064 112.095 35.6142C111.766 34.8221 111.282 34.1038 110.671 33.5021C110.073 32.8927 109.36 32.4092 108.572 32.0801C107.785 31.751 106.939 31.583 106.086 31.5861C105.229 31.581 104.38 31.748 103.589 32.0771C102.798 32.4062 102.08 32.8908 101.48 33.5021C93.7619 41.2091 90.6499 48.6841 91.9749 56.3491C93.0889 62.8561 97.2319 67.9721 100.892 72.4791C103.626 75.8481 106.465 79.3221 106.991 82.3761C107.432 84.7341 106.423 87.3871 103.92 90.4611L103.289 91.2411H66.7369C66.6109 91.2411 66.4849 91.2611 66.3589 91.2611C66.2329 91.2611 66.0639 91.2831 65.8959 91.3041H65.8749L65.7069 91.3241C65.618 91.3508 65.5258 91.3652 65.4329 91.3671L65.2439 91.409C65.1048 91.454 64.9648 91.496 64.8239 91.5351L64.6339 91.5991C64.5499 91.6191 64.4659 91.6621 64.3609 91.7041L64.2349 91.7461C62.7454 92.3624 61.5384 93.5109 60.8489 94.9681L48.1039 121.858L47.5359 123.058H30.5859C26.9889 123.058 24.0659 125.985 24.0659 129.586C24.0659 133.166 26.9889 136.093 30.5859 136.093H263.292C266.868 136.093 269.791 133.166 269.791 129.586C269.791 125.985 266.868 123.058 263.292 123.058ZM61.9419 123.058L63.3519 120.068L70.2709 105.475L70.8379 104.275H223.018L223.586 105.475L230.505 120.068L231.935 123.058H61.9419Z" fill="#FF0000"/>
</svg>
